<svg viewBox="0 0 200 200" xmlns="http://www.w3.org/2000/svg">
  <path id="bg_1_2" class="bg-fill" fill="#151515" d="M44.2,-76.9C58.1,-68.6,70.8,-58.4,78,-45.2C85.2,-32.1,87.1,-16.1,86.2,-0.5C85.3,15,81.7,30.1,74.9,43.9C68,57.7,57.9,70.2,44.9,79.2C31.9,88.2,15.9,93.5,0.2,93.2C-15.6,93,-31.2,87,-45.3,78.7C-59.5,70.3,-72.2,59.7,-80.1,46.2C-88,32.7,-91.1,16.3,-89.7,0.8C-88.2,-14.7,-82.4,-29.4,-74.5,-43C-66.6,-56.5,-56.7,-68.8,-44,-77.8C-31.2,-86.8,-15.6,-92.5,-0.2,-92.1C15.2,-91.7,30.3,-85.2,44.2,-76.9Z" transform="translate(100 100)" />
  <path id="bg_2_2" class="bg-fill" fill="#1A1A1A" d="M44.9,-77.9C57.9,-70.3,68,-57.7,74.7,-43.9C81.3,-30.1,84.6,-15,85.5,0.5C86.5,16.1,85.1,32.2,78.4,45.9C71.6,59.6,59.5,70.8,45.5,77.7C31.6,84.7,15.8,87.4,1.3,85.1C-13.2,82.9,-26.3,75.7,-38.3,67.5C-50.2,59.4,-60.8,50.3,-67.8,38.9C-74.8,27.5,-78,13.8,-77.7,0.2C-77.4,-13.4,-73.5,-26.8,-67.4,-39.8C-61.4,-52.8,-53.3,-65.5,-41.7,-73.9C-30.1,-82.3,-15,-86.5,0.5,-87.3C16,-88.1,31.9,-85.5,44.9,-77.9Z" transform="translate(100 100)" />
  <path id="bg_3_2" class="bg-fill" fill="#222222" d="M36.8,-63.4C48.2,-57.1,58.3,-48.3,64,-37.3C69.7,-26.4,70.9,-13.2,73.6,1.6C76.3,16.3,80.6,32.6,76.6,46.5C72.6,60.5,60.4,71.9,46.2,76C32.1,80.1,16.1,76.8,2.5,72.5C-11.1,68.2,-22.2,62.9,-32.3,56.5C-42.4,50.1,-51.5,42.5,-57,32.9C-62.5,23.3,-64.4,11.6,-65.7,-0.7C-66.9,-13,-67.3,-26.1,-63.2,-38.1C-59.1,-50.2,-50.5,-61.3,-39.2,-67.7C-27.9,-74.1,-13.9,-75.7,-0.6,-74.6C12.7,-73.6,25.4,-69.8,36.8,-63.4Z" transform="translate(100 100)" />
  <path id="bg_4_2" class="bg-fill" fill="#262626" d="M29.2,-44.7C37.1,-34.5,42.3,-25,50.1,-13.4C57.8,-1.8,68.2,11.9,69.3,26.9C70.4,41.9,62.3,58.3,49.2,67.9C36.2,77.6,18.1,80.6,3.7,75.5C-10.7,70.4,-21.3,57.2,-31.2,46.5C-41.1,35.8,-50.2,27.5,-60.2,15.2C-75.4,-39,-58.3,-47.9,-42.9,-55.6C-27.5,-63.4,-13.8,-70,-1.6,-67.9C10.7,-65.7,21.3,-54.9,29.2,-44.7Z" transform="translate(100 100)" />
  <path id="bg_5_2" class="bg-fill" fill="#2B2B2B" d="M33.3,-38.3C46.4,-28.7,62.5,-21.3,67.4,-9.5C72.3,2.3,66.1,18.4,57.8,33.8C49.4,49.2,39,63.8,24.9,69.2C10.9,74.7,-6.8,71,-22,64C-37.2,56.9,-49.9,46.5,-56.3,33.5C-62.7,20.4,-62.7,4.7,-57.7,-7.9C-52.8,-20.4,-42.8,-29.7,-32.3,-39.8C-21.8,-49.9,-10.9,-60.8,-0.4,-60.3C10.1,-59.8,20.2,-48,33.3,-38.3Z" transform="translate(100 100)" />
  <path id="bg_6_2" class="bg-fill" fill="#2B2B2B" d="M47.9,-20.5C60.5,-5.8,68.1,19,59.3,34.8C50.5,50.7,25.3,57.6,4.4,55C-16.4,52.5,-32.8,40.4,-46,22C-59.3,3.6,-69.4,-21.1,-61.2,-33.3C-53,-45.5,-26.5,-45.2,-4.4,-42.6C17.6,-40,35.3,-35.3,47.9,-20.5Z" transform="translate(100 100)" />
  <path id="bg_7_2" class="bg-fill" fill="#2F2F2F" d="M61.8,-0.5C61.8,32.1,30.9,64.2,-1,64.2C-32.8,64.2,-65.6,32.1,-65.6,-0.5C-65.6,-33.1,-32.8,-66.1,-1,-66.1C30.9,-66.1,61.8,-33.1,61.8,-0.5Z" transform="translate(100 100)" />
  <path id="bg_8_2" class="bg-fill" fill="#333333" d="M64.9,-1.3C64.9,30.3,32.4,60.6,1,60.6C-30.4,60.6,-60.9,30.3,-60.9,-1.3C-60.9,-33,-30.4,-66,1,-66C32.4,-66,64.9,-33,64.9,-1.3Z" transform="translate(100 100)" />
  <path id="bg_9_2" class="bg-fill" fill="#373737" d="M52.3,-1.1C52.3,22.6,26.2,45.2,-2.5,45.2C-31.3,45.2,-62.5,22.6,-62.5,-1.1C-62.5,-24.7,-31.3,-49.5,-2.5,-49.5C26.2,-49.5,52.3,-24.7,52.3,-1.1Z" transform="translate(100 100)" />
  <path id="bg_10_2" class="bg-fill" fill="#3C3C3C" d="M34.2,25.2C19.9,44.4,-32.7,46.8,-44.8,28.9C-56.9,10.9,-28.5,-27.4,-2.1,-28.6C24.2,-29.9,48.4,6,34.2,25.2Z" transform="translate(100 100)" />
  <path id="bg_11_2" class="bg-fill" fill="#404040" d="M37.9,29.6C25.4,43.6,-24.9,43.5,-37.6,29.5C-50.2,15.4,-25.1,-12.6,0.1,-12.6C25.2,-12.5,50.5,15.6,37.9,29.6Z" transform="translate(100 100)" />
</svg>
